<svg width="442.52" height="110.188" viewBox="0 0 369.895 92.104" class="looka-1j8o68f">
  <g xmlns="http://www.w3.org/2000/svg" transform="translate(-4.598 -4.598)scale(1.12557)" fill="#fff">
    <circle cx="45" cy="44.404" r="4.621" />
    <path
      d="M31.56 35.003a15.3 15.3 0 0 0 7.549 4.287 15.27 15.27 0 0 0-4.018-7.695 15.3 15.3 0 0 0-7.549-4.288 15.3 15.3 0 0 0 4.018 7.696m3.443 23.436a15.3 15.3 0 0 0 4.287-7.549 15.3 15.3 0 0 0-7.695 4.019 15.3 15.3 0 0 0-4.288 7.55 15.3 15.3 0 0 0 7.696-4.02m23.437-3.441a15.27 15.27 0 0 0-7.55-4.287 15.27 15.27 0 0 0 4.019 7.694 15.3 15.3 0 0 0 7.549 4.288 15.3 15.3 0 0 0-4.018-7.695m-3.441-23.437a15.26 15.26 0 0 0-4.288 7.549 15.3 15.3 0 0 0 7.694-4.019 15.26 15.26 0 0 0 4.288-7.548 15.26 15.26 0 0 0-7.694 4.018" />
    <path
      d="M45 4.085c-20.801 27.626 0 27.927 0 27.927s20.801-.3 0-27.927m0 81.829c20.8-27.625 0-27.926 0-27.926s-20.801.301 0 27.926M4.085 45c27.626 20.801 27.927 0 27.927 0s-.301-20.801-27.927 0m81.83 0c-27.626-20.801-27.927 0-27.927 0s.301 20.802 27.927 0" />
  </g>
  <path
    d="M143.276 27q.714 0 1.25.536t.535 1.25V62.96q0 .714-.535 1.25t-1.25.535h-4.488q-.918 0-1.48-.714l-24.941-34.174q-.307-.408-.358-.918t.179-.97.663-.713.944-.255h4.488q.408 0 .816.178t.612.536l17.903 24.33v-23.26q0-.713.51-1.249t1.276-.535zm-25.605 24.738q.714 0 1.25.51t.535 1.276v9.436q0 .714-.535 1.25t-1.25.535h-3.876q-.714 0-1.25-.536t-.536-1.25v-9.435q0-.765.536-1.276t1.25-.51zm62.636 5.764q.765 0 1.275.536t.51 1.3v3.724q0 .714-.51 1.25t-1.275.535H155.11q-.715 0-1.25-.536t-.536-1.25v-3.723q0-.765.536-1.3t1.25-.536zm-25.197-7.906q-.715 0-1.25-.535t-.536-1.25v-3.826q0-.714.536-1.25t1.25-.535h22.901q.765 0 1.3.536t.536 1.25v3.825q0 .714-.535 1.25t-1.3.535zm25.197-22.595q.765 0 1.275.535t.51 1.25v3.723q0 .765-.51 1.3t-1.275.536H155.11q-.715 0-1.25-.535t-.536-1.3v-3.724q0-.714.536-1.25t1.25-.535zm39.223 35.245q.306.408.357.918t-.153.969-.663.74-.969.28h-4.948q-.918 0-1.479-.714l-9.742-12.905-9.742 12.905q-.561.714-1.428.714h-4.999q-.51 0-.943-.255t-.638-.714q-.51-1.071.153-1.938l26.421-34.531q.561-.714 1.428-.714h4.948q.51 0 .943.28t.689.74.204.969-.408.918l-11.986 15.608zm-26.88-22.8-7.345-9.538q-.357-.408-.408-.918t.204-.97.689-.739.943-.28h4.948q.408 0 .816.178t.612.536l7.192 9.538q.714.867.204 1.938-.204.459-.638.714t-.994.255h-4.795q-.408 0-.816-.178t-.612-.536m34.888-12.445q.765 0 1.3.535t.536 1.3v3.724q0 .765-.535 1.3t-1.3.536h-5.255q-.714 0-1.25-.535t-.535-1.3v-3.724q0-.765.536-1.3t1.25-.536zm22.8 0q.714 0 1.25.535t.535 1.3v3.724q0 .765-.536 1.3t-1.25.536h-10.251v28.972q0 .714-.536 1.25t-1.25.535h-3.927q-.765 0-1.3-.536t-.536-1.25v-34.53q0-.765.535-1.3t1.3-.536zm41.672 0q.714 0 1.25.535t.535 1.25V62.96q0 .714-.536 1.25t-1.25.535h-3.876q-.765 0-1.275-.536t-.51-1.25V39.906l-9.436 12.14q-.561.663-1.428.663-.408 0-.816-.179t-.612-.536l-16.73-22.136q-.306-.357-.357-.893t.204-.969.663-.714.918-.28h4.488q.867 0 1.428.714l10.814 14.281 10.558-14.281q.561-.714 1.48-.714zm-29.38 24.737q.714 0 1.25.51t.535 1.276v9.436q0 .714-.535 1.25t-1.25.535h-3.876q-.714 0-1.25-.536t-.535-1.25v-9.435q0-.765.535-1.276t1.25-.51zm45.09-24.737q.714 0 1.25.535t.535 1.25V62.96q0 .714-.536 1.25t-1.25.535h-3.876q-.714 0-1.25-.536t-.535-1.25V28.787q0-.714.535-1.25t1.25-.535zm18.617 30.45q.765 0 1.275.536t.51 1.25v3.723q0 .714-.51 1.25t-1.275.535h-11.885q-.765 0-1.275-.536t-.51-1.25v-3.723q0-.714.51-1.25t1.275-.535zm41.774-30.45q.714 0 1.25.535t.535 1.25V62.96q0 .714-.536 1.25t-1.25.535h-3.876q-.765 0-1.275-.536t-.51-1.25V39.906l-9.436 12.14q-.561.663-1.428.663-.408 0-.816-.179t-.612-.536l-16.73-22.136q-.307-.357-.358-.893t.205-.969.663-.714.918-.28h4.488q.867 0 1.428.714l10.814 14.281 10.558-14.281q.561-.714 1.48-.714zm-29.38 24.737q.714 0 1.25.51t.535 1.276v9.436q0 .714-.535 1.25t-1.25.535h-3.876q-.714 0-1.25-.536t-.536-1.25v-9.435q0-.765.536-1.276t1.25-.51z"
    fill="#fff" />
</svg>