<svg width="500" height="500" viewBox="0 0 92.105 92.104">
  <g xmlns="http://www.w3.org/2000/svg" transform="translate(-4.598 -4.598)scale(1.12557)" fill="#fff">
    <circle cx="45" cy="44.404" r="4.621" />
    <path
      d="M31.56 35.003a15.3 15.3 0 0 0 7.549 4.287 15.27 15.27 0 0 0-4.018-7.695 15.3 15.3 0 0 0-7.549-4.288 15.3 15.3 0 0 0 4.018 7.696m3.443 23.436a15.3 15.3 0 0 0 4.287-7.549 15.3 15.3 0 0 0-7.695 4.019 15.3 15.3 0 0 0-4.288 7.55 15.3 15.3 0 0 0 7.696-4.02m23.437-3.441a15.27 15.27 0 0 0-7.55-4.287 15.27 15.27 0 0 0 4.019 7.694 15.3 15.3 0 0 0 7.549 4.288 15.3 15.3 0 0 0-4.018-7.695m-3.441-23.437a15.26 15.26 0 0 0-4.288 7.549 15.3 15.3 0 0 0 7.694-4.019 15.26 15.26 0 0 0 4.288-7.548 15.26 15.26 0 0 0-7.694 4.018" />
    <path
      d="M45 4.085c-20.801 27.626 0 27.927 0 27.927s20.801-.3 0-27.927m0 81.829c20.8-27.625 0-27.926 0-27.926s-20.801.301 0 27.926M4.085 45c27.626 20.801 27.927 0 27.927 0s-.301-20.801-27.927 0m81.83 0c-27.626-20.801-27.927 0-27.927 0s.301 20.802 27.927 0" />
  </g>
</svg>